<svg width="12" height="12" viewBox="0 0 12 12" fill="none" xmlns="http://www.w3.org/2000/svg">
<path d="M1.13757 11.9249C0.843367 11.942 0.554026 11.8442 0.330564 11.6521C-0.110147 11.2087 -0.110147 10.4927 0.330564 10.0494L9.98069 0.399214C10.4391 -0.0297067 11.1583 -0.00586323 11.5873 0.452515C11.9751 0.867025 11.9977 1.50414 11.6402 1.94507L1.9332 11.6521C1.71262 11.8414 1.42792 11.939 1.13757 11.9249Z" fill="white"/>
<path d="M10.7764 11.9248C10.4782 11.9236 10.1924 11.8052 9.9807 11.5952L0.330533 1.94503C-0.0777629 1.46823 -0.0222529 0.750684 0.454542 0.342351C0.880093 -0.0220759 1.5077 -0.0220759 1.93321 0.342351L11.6402 9.99251C12.0985 10.4215 12.1222 11.1409 11.6931 11.5991C11.6761 11.6173 11.6584 11.635 11.6402 11.652C11.4025 11.8587 11.0897 11.9575 10.7764 11.9248Z" fill="white"/>
</svg>
