<svg width="23" height="14" viewBox="0 0 23 14" fill="none" xmlns="http://www.w3.org/2000/svg">
<path d="M17.0058 0.988261C17.2656 0.996003 17.5122 1.10462 17.6933 1.29103L22.6914 6.29492C22.8776 6.4823 22.9822 6.73579 22.9822 7C22.9822 7.26422 22.8776 7.51759 22.6914 7.70497L17.6933 12.7109C17.5052 12.8984 17.2503 13.0036 16.9847 13.0033C16.7191 13.0031 16.4644 12.8975 16.2766 12.7097C16.0888 12.5219 15.9832 12.2672 15.983 12.0016C15.9827 11.736 16.0879 11.4811 16.2753 11.2929L19.5664 8.00186H1.99996C1.86824 8.00228 1.73775 7.97678 1.61594 7.92666C1.49413 7.87654 1.38342 7.80281 1.29014 7.70982C1.19685 7.61683 1.12284 7.50632 1.07234 7.38467C1.02184 7.26302 0.995846 7.13264 0.995846 7.00093C0.995846 6.86921 1.02184 6.73883 1.07234 6.61718C1.12284 6.49553 1.19685 6.38502 1.29014 6.29203C1.38342 6.19904 1.49413 6.12542 1.61594 6.07531C1.73775 6.02519 1.86824 5.99958 1.99996 5.99999H19.5742L16.2753 2.70893C16.1291 2.5685 16.029 2.38701 15.9883 2.18839C15.9477 1.98978 15.9683 1.78342 16.0475 1.59681C16.1267 1.41019 16.2608 1.25208 16.4319 1.1434C16.6031 1.03471 16.8032 0.980615 17.0058 0.988261Z" fill="#FBFBFB"/>
</svg>
