<svg width="23" height="14" viewBox="0 0 23 14" fill="none" xmlns="http://www.w3.org/2000/svg">
<path d="M5.99419 0.988261C5.73439 0.996003 5.48781 1.10462 5.30669 1.29103L0.308644 6.29492C0.122375 6.4823 0.0178223 6.73579 0.0178223 7C0.0178223 7.26422 0.122375 7.51759 0.308644 7.70497L5.30669 12.7109C5.49484 12.8984 5.74969 13.0036 6.01529 13.0033C6.2809 13.0031 6.53555 12.8975 6.72336 12.7097C6.91117 12.5219 7.01679 12.2672 7.01703 12.0016C7.01728 11.736 6.91212 11.4811 6.72466 11.2929L3.43364 8.00186H21C21.1318 8.00228 21.2623 7.97678 21.3841 7.92666C21.5059 7.87654 21.6166 7.80281 21.7099 7.70982C21.8031 7.61683 21.8772 7.50632 21.9277 7.38467C21.9782 7.26302 22.0042 7.13264 22.0042 7.00093C22.0042 6.86921 21.9782 6.73883 21.9277 6.61718C21.8772 6.49553 21.8031 6.38502 21.7099 6.29203C21.6166 6.19904 21.5059 6.12542 21.3841 6.07531C21.2623 6.02519 21.1318 5.99958 21 5.99999H3.42583L6.72466 2.70893C6.87088 2.5685 6.97097 2.38701 7.01166 2.18839C7.05235 1.98978 7.03171 1.78342 6.95249 1.59681C6.87327 1.41019 6.7392 1.25208 6.56806 1.1434C6.39691 1.03471 6.19678 0.980615 5.99419 0.988261Z" fill="#FBFBFB"/>
</svg>
