<svg width="40" height="40" viewBox="0 0 40 40" fill="none" xmlns="http://www.w3.org/2000/svg">
<path d="M29.6874 13.805C29.1472 11.6454 27.9009 9.72829 26.1466 8.35795C24.3923 6.98762 22.2304 6.24266 20.0043 6.24137C17.7782 6.24007 15.6155 6.98252 13.8596 8.35082C12.1037 9.71912 10.8552 11.6348 10.3124 13.7937C7.75224 14.034 5.38298 15.2513 3.69681 17.1928C2.01065 19.1342 1.13718 21.6506 1.25785 24.2192C1.37852 26.7879 2.48405 29.2113 4.3448 30.9861C6.20554 32.761 8.67849 33.7508 11.2499 33.75H14.9999C15.3315 33.75 15.6494 33.6183 15.8838 33.3839C16.1182 33.1495 16.2499 32.8315 16.2499 32.5C16.2499 32.1685 16.1182 31.8505 15.8838 31.6161C15.6494 31.3817 15.3315 31.25 14.9999 31.25H11.2499C10.265 31.2529 9.2892 31.0617 8.37816 30.6875C7.46712 30.3132 6.63871 29.7632 5.94024 29.0688C4.52962 27.6663 3.73388 25.761 3.72807 23.7719C3.72227 21.7827 4.50689 19.8728 5.90931 18.4622C7.31173 17.0515 9.21707 16.2558 11.2062 16.25C11.5269 16.2741 11.8452 16.1783 12.0993 15.981C12.3533 15.7838 12.5251 15.4992 12.5812 15.1825C12.8357 13.3976 13.7257 11.7644 15.0876 10.5829C16.4495 9.40142 18.192 8.75095 19.9949 8.75095C21.7979 8.75095 23.5404 9.40142 24.9023 10.5829C26.2642 11.7644 27.1542 13.3976 27.4087 15.1825C27.4741 15.4882 27.6435 15.7618 27.8881 15.9564C28.1328 16.1511 28.4374 16.2549 28.7499 16.25C30.7391 16.25 32.6467 17.0402 34.0532 18.4467C35.4598 19.8532 36.2499 21.7609 36.2499 23.75C36.2499 25.7391 35.4598 27.6468 34.0532 29.0533C32.6467 30.4598 30.7391 31.25 28.7499 31.25H24.9999C24.6684 31.25 24.3505 31.3817 24.1161 31.6161C23.8816 31.8505 23.7499 32.1685 23.7499 32.5C23.7499 32.8315 23.8816 33.1495 24.1161 33.3839C24.3505 33.6183 24.6684 33.75 24.9999 33.75H28.7499C31.3026 33.7233 33.7484 32.7213 35.5861 30.9495C37.4239 29.1776 38.5144 26.77 38.6343 24.2201C38.7541 21.6701 37.8942 19.1708 36.2308 17.2344C34.5674 15.298 32.2263 14.071 29.6874 13.805Z" fill="#9F9F9F"/>
<path d="M25.3662 24.6338C25.602 24.8615 25.9177 24.9874 26.2454 24.9846C26.5732 24.9818 26.8867 24.8503 27.1185 24.6185C27.3502 24.3868 27.4817 24.0733 27.4845 23.7455C27.4874 23.4178 27.3614 23.102 27.1337 22.8663L20.8837 16.6163C20.6493 16.3819 20.3314 16.2503 20 16.2503C19.6685 16.2503 19.3506 16.3819 19.1162 16.6163L12.8662 22.8663C12.6385 23.102 12.5125 23.4178 12.5154 23.7455C12.5182 24.0733 12.6497 24.3868 12.8814 24.6185C13.1132 24.8503 13.4267 24.9818 13.7545 24.9846C14.0822 24.9874 14.398 24.8615 14.6337 24.6338L18.75 20.5175V36.25C18.75 36.5815 18.8816 36.8995 19.1161 37.1339C19.3505 37.3683 19.6684 37.5 20 37.5C20.3315 37.5 20.6494 37.3683 20.8838 37.1339C21.1183 36.8995 21.25 36.5815 21.25 36.25V20.5175L25.3662 24.6338Z" fill="#9F9F9F"/>
</svg>
